<svg width="140" height="25" viewBox="0 0 140 25" fill="none" xmlns="http://www.w3.org/2000/svg">
<path d="M6.23128 22.2906C7.39267 22.2906 8.31302 22.0058 8.99232 21.436C9.69354 20.8444 10.2085 20.176 10.5372 19.431V16.3084H9.09093C6.96537 16.3084 5.43145 16.5385 4.48919 16.9986C3.56884 17.4369 3.10867 18.2915 3.10867 19.5625C3.10867 20.4609 3.41545 21.1402 4.02902 21.6004C4.6645 22.0606 5.39858 22.2906 6.23128 22.2906ZM11.0631 23.9999C10.9755 23.6931 10.8988 23.3315 10.833 22.9152C10.7673 22.4988 10.7125 22.0496 10.6687 21.5675C10.4715 21.8962 10.2304 22.2249 9.94554 22.5536C9.68258 22.8823 9.35389 23.1781 8.95945 23.4411C8.56502 23.704 8.09389 23.9122 7.54606 24.0656C6.99824 24.2409 6.36276 24.3286 5.63963 24.3286C4.9165 24.3286 4.23719 24.23 3.60171 24.0327C2.96624 23.8355 2.3965 23.5397 1.8925 23.1453C1.41041 22.7508 1.02693 22.2687 0.742063 21.699C0.457193 21.1293 0.314758 20.4719 0.314758 19.7268C0.314758 17.93 1.02693 16.6261 2.45128 15.8153C3.89754 14.9826 6.02311 14.5663 8.82798 14.5663H10.5372V13.2186C10.5372 11.882 10.2523 10.8849 9.68258 10.2275C9.11284 9.57013 8.10484 9.24143 6.65858 9.24143C5.6725 9.24143 4.77406 9.42769 3.96328 9.80021C3.17441 10.1508 2.47319 10.5781 1.85963 11.0821L1.10363 8.78126C1.36658 8.58404 1.70624 8.38682 2.12258 8.18961C2.53893 7.99239 3.01006 7.81709 3.53598 7.66369C4.06189 7.5103 4.62067 7.38978 5.21232 7.30213C5.80398 7.19256 6.40658 7.13778 7.02015 7.13778C9.10189 7.13778 10.6687 7.59795 11.7205 8.5183C12.7942 9.41674 13.3311 10.852 13.3311 12.8242V21.3374C13.3311 21.71 13.353 22.1811 13.3968 22.7508C13.4407 23.2986 13.4955 23.715 13.5612 23.9999H11.0631Z" fill="white"/>
<path d="M24.7024 10.096C24.1327 10.0522 23.5739 10.096 23.0261 10.2275C22.4783 10.359 21.9633 10.5672 21.4812 10.852C21.021 11.1369 20.5937 11.4875 20.1993 11.9039C19.8268 12.3202 19.531 12.7804 19.3118 13.2844V23.9999H16.5179V7.46648H18.9831L19.2461 11.0493H19.3118C19.531 10.5672 19.8049 10.107 20.1336 9.66874C20.4842 9.20856 20.8786 8.81413 21.3169 8.48543C21.777 8.13482 22.281 7.84995 22.8289 7.63082C23.3986 7.41169 24.0231 7.30213 24.7024 7.30213V10.096Z" fill="white"/>
<path d="M25.7368 23.9999V21.7319L35.2032 9.37291H25.9998V7.46648H37.7671V9.93169L28.4978 22.0934H37.7999V23.9999H25.7368Z" fill="white"/>
<path d="M46.5039 24.3286C45.4302 24.3286 44.4112 24.1423 43.4471 23.7698C42.4829 23.3753 41.6392 22.8166 40.9161 22.0934C40.193 21.3484 39.6123 20.45 39.174 19.3981C38.7577 18.3244 38.5495 17.0973 38.5495 15.7167C38.5495 14.3362 38.7577 13.12 39.174 12.0682C39.6123 10.9945 40.193 10.096 40.9161 9.37291C41.6392 8.64978 42.4829 8.10195 43.4471 7.72943C44.4112 7.335 45.4302 7.13778 46.5039 7.13778C47.5777 7.13778 48.5966 7.335 49.5608 7.72943C50.5469 8.10195 51.4015 8.64978 52.1246 9.37291C52.8697 10.096 53.4613 10.9945 53.8996 12.0682C54.3378 13.12 54.557 14.3362 54.557 15.7167C54.557 17.0973 54.3378 18.3244 53.8996 19.3981C53.4613 20.45 52.8697 21.3484 52.1246 22.0934C51.4015 22.8166 50.5469 23.3753 49.5608 23.7698C48.5966 24.1423 47.5777 24.3286 46.5039 24.3286ZM46.5039 22.2578C47.1613 22.2578 47.7968 22.1482 48.4104 21.9291C49.0458 21.688 49.6046 21.3046 50.0867 20.7786C50.5688 20.2527 50.9523 19.5734 51.2372 18.7407C51.5439 17.908 51.6973 16.9 51.6973 15.7167C51.6973 14.5334 51.5439 13.5364 51.2372 12.7256C50.9523 11.8929 50.5688 11.2136 50.0867 10.6877C49.6046 10.1618 49.0458 9.78926 48.4104 9.57013C47.7968 9.32908 47.1613 9.20856 46.5039 9.20856C45.8465 9.20856 45.2111 9.32908 44.5975 9.57013C44.0058 9.78926 43.469 10.1618 42.9869 10.6877C42.5048 11.2136 42.1213 11.8929 41.8365 12.7256C41.5516 13.5364 41.4092 14.5334 41.4092 15.7167C41.4092 16.9 41.5516 17.908 41.8365 18.7407C42.1213 19.5734 42.5048 20.2527 42.9869 20.7786C43.469 21.3046 44.0058 21.688 44.5975 21.9291C45.2111 22.1482 45.8465 22.2578 46.5039 22.2578Z" fill="white"/>
<path d="M64.7576 9.37291C63.4866 9.37291 62.4567 9.67969 61.6678 10.2933C60.879 10.9068 60.2325 11.6738 59.7285 12.5941V23.9999H56.9346V7.46648H59.5642L59.6628 10.4247H59.7285C60.1668 9.48248 60.868 8.70456 61.8322 8.091C62.7964 7.45552 64.0125 7.13778 65.4807 7.13778C67.1242 7.13778 68.428 7.57604 69.3922 8.45256C70.3564 9.30717 70.8385 10.622 70.8385 12.3969V23.9999H68.0117V12.5284C68.0117 11.3451 67.7268 10.5233 67.1571 10.0632C66.5873 9.603 65.7875 9.37291 64.7576 9.37291Z" fill="white"/>
<path d="M81.9671 24.3286C80.4332 24.3286 79.1075 23.9341 77.9899 23.1453C76.8942 22.3345 76.0835 21.206 75.5575 19.7597L75.3932 23.9999H74.3742V0.169434H75.5904V11.608C76.1382 10.1837 76.96 9.08804 78.0556 8.32108C79.1513 7.53222 80.4661 7.13778 82 7.13778C83.0299 7.13778 83.9941 7.32404 84.8925 7.69656C85.7909 8.06908 86.5688 8.62787 87.2262 9.37291C87.9055 10.096 88.4315 10.9945 88.804 12.0682C89.1984 13.12 89.3956 14.3362 89.3956 15.7167C89.3956 17.0973 89.1984 18.3244 88.804 19.3981C88.4315 20.4719 87.9055 21.3703 87.2262 22.0934C86.5688 22.8166 85.78 23.3753 84.8596 23.7698C83.9612 24.1423 82.997 24.3286 81.9671 24.3286ZM81.8685 23.4082C82.7669 23.4082 83.5996 23.2439 84.3666 22.9152C85.1336 22.5865 85.7909 22.1044 86.3388 21.4689C86.9085 20.8115 87.3468 20.0007 87.6535 19.0366C87.9822 18.0724 88.1466 16.9658 88.1466 15.7167C88.1466 14.4677 87.9822 13.3611 87.6535 12.3969C87.3468 11.4327 86.9085 10.6329 86.3388 9.99743C85.7909 9.36195 85.1336 8.87987 84.3666 8.55117C83.5996 8.22248 82.7669 8.05813 81.8685 8.05813C80.9701 8.05813 80.1374 8.22248 79.3704 8.55117C78.6035 8.87987 77.9351 9.36195 77.3654 9.99743C76.8175 10.6329 76.3793 11.4327 76.0506 12.3969C75.7438 13.3611 75.5904 14.4677 75.5904 15.7167C75.5904 16.9658 75.7438 18.0724 76.0506 19.0366C76.3793 20.0007 76.8175 20.8115 77.3654 21.4689C77.9351 22.1044 78.6035 22.5865 79.3704 22.9152C80.1374 23.2439 80.9701 23.4082 81.8685 23.4082Z" fill="#BABABA"/>
<path d="M92.8793 3.78509C92.5725 3.78509 92.3205 3.68648 92.1233 3.48926C91.948 3.27013 91.8603 3.02909 91.8603 2.76613C91.8603 2.50317 91.948 2.27308 92.1233 2.07587C92.3205 1.85674 92.5725 1.74717 92.8793 1.74717C93.1861 1.74717 93.4271 1.85674 93.6024 2.07587C93.7777 2.27308 93.8654 2.50317 93.8654 2.76613C93.8654 3.02909 93.7777 3.27013 93.6024 3.48926C93.4271 3.68648 93.1861 3.78509 92.8793 3.78509ZM93.4709 7.46648V23.9999H92.2548V7.46648H93.4709Z" fill="#BABABA"/>
<path d="M95.9747 23.9999V23.3096L105.934 8.38682H96.2376V7.46648H107.479V8.15674L97.5195 23.0795H107.512V23.9999H95.9747Z" fill="#BABABA"/>
<path d="M116.355 23.4082C117.254 23.4082 118.086 23.2439 118.853 22.9152C119.642 22.5646 120.31 22.0715 120.858 21.436C121.428 20.7786 121.866 19.9788 122.173 19.0366C122.502 18.0724 122.666 16.9658 122.666 15.7167C122.666 14.4677 122.502 13.372 122.173 12.4298C121.866 11.4656 121.428 10.6658 120.858 10.0303C120.31 9.37291 119.642 8.87987 118.853 8.55117C118.086 8.22248 117.254 8.05813 116.355 8.05813C115.457 8.05813 114.613 8.22248 113.824 8.55117C113.057 8.87987 112.389 9.37291 111.819 10.0303C111.271 10.6658 110.833 11.4656 110.504 12.4298C110.198 13.372 110.044 14.4677 110.044 15.7167C110.044 16.9658 110.198 18.0724 110.504 19.0366C110.833 19.9788 111.271 20.7786 111.819 21.436C112.389 22.0715 113.057 22.5646 113.824 22.9152C114.613 23.2439 115.457 23.4082 116.355 23.4082ZM122.666 19.694C122.14 21.1402 121.329 22.2797 120.234 23.1124C119.138 23.9232 117.801 24.3286 116.224 24.3286C115.194 24.3286 114.23 24.1423 113.331 23.7698C112.433 23.3753 111.644 22.8166 110.964 22.0934C110.307 21.3703 109.781 20.4719 109.387 19.3981C109.014 18.3244 108.828 17.0973 108.828 15.7167C108.828 14.3362 109.014 13.12 109.387 12.0682C109.781 10.9945 110.307 10.096 110.964 9.37291C111.644 8.62787 112.433 8.06908 113.331 7.69656C114.23 7.32404 115.194 7.13778 116.224 7.13778C117.758 7.13778 119.072 7.52126 120.168 8.28822C121.286 9.03326 122.107 10.118 122.633 11.5423V0.169434H123.849V23.9999H122.798L122.666 19.694Z" fill="#BABABA"/>
<path d="M132.49 23.3753C133.3 23.3753 134.002 23.2439 134.593 22.9809C135.207 22.718 135.722 22.3893 136.138 21.9948C136.555 21.6004 136.894 21.184 137.157 20.7458C137.442 20.2856 137.661 19.8693 137.815 19.4967V15.2566H134.659C132.402 15.2566 130.737 15.5962 129.663 16.2755C128.611 16.9548 128.085 18.0066 128.085 19.431C128.085 20.702 128.458 21.6771 129.203 22.3564C129.97 23.0357 131.065 23.3753 132.49 23.3753ZM138.209 23.9999C138.099 23.6493 138.012 23.222 137.946 22.718C137.88 22.214 137.847 21.6113 137.847 20.9101C137.65 21.3046 137.398 21.71 137.091 22.1263C136.807 22.5207 136.445 22.8823 136.007 23.211C135.568 23.5397 135.043 23.8026 134.429 23.9999C133.837 24.219 133.136 24.3286 132.325 24.3286C130.638 24.3286 129.301 23.9122 128.315 23.0795C127.351 22.2249 126.869 21.0197 126.869 19.4639C126.869 17.7985 127.515 16.5385 128.808 15.6839C130.123 14.8293 132.04 14.402 134.56 14.402H137.815V12.3969C137.815 10.9068 137.442 9.82213 136.697 9.14282C135.952 8.46352 134.802 8.12387 133.246 8.12387C132.084 8.12387 131.087 8.28822 130.255 8.61691C129.422 8.92369 128.699 9.31813 128.085 9.80021L127.592 8.78126C128.096 8.43065 128.83 8.06908 129.794 7.69656C130.78 7.32404 131.964 7.13778 133.344 7.13778C135.163 7.13778 136.566 7.55413 137.552 8.38682C138.538 9.21952 139.031 10.5124 139.031 12.2654V20.8773C139.031 21.4908 139.053 22.0825 139.096 22.6522C139.14 23.2 139.217 23.6493 139.327 23.9999H138.209Z" fill="#BABABA"/>
</svg>
