<svg width="20" height="19" viewBox="0 0 20 19" fill="none" xmlns="http://www.w3.org/2000/svg">
<path d="M11.3956 15.2315C14.6625 15.2315 16.2963 15.2315 17.3108 14.2162C18.3261 13.2018 18.3261 11.5679 18.3261 8.3011C18.3261 5.03426 18.3261 3.40042 17.3108 2.38597C16.2963 1.37067 14.6625 1.37067 11.3956 1.37067H7.93043C4.6636 1.37067 3.02975 1.37067 2.01531 2.38597C1 3.40042 1 5.03426 1 8.3011C1 11.5679 1 13.2018 2.01531 14.2162C2.581 14.7828 3.33902 15.0331 4.46521 15.1432" stroke="#AFB3B3" stroke-width="1.7" stroke-linecap="round" stroke-linejoin="round"/>
<path d="M11.3957 15.2315C10.3249 15.2315 9.145 15.6646 8.06818 16.2234C6.33731 17.1217 5.47187 17.5713 5.04565 17.2846C4.61943 16.9987 4.69999 16.1108 4.86199 14.3357L4.89838 13.932" stroke="#AFB3B3" stroke-width="1.7" stroke-linecap="round"/>
</svg>
