<svg width="22" height="22" viewBox="0 0 22 22" fill="none" xmlns="http://www.w3.org/2000/svg">
<path d="M20 3.5H12.5V2C12.5 1.60218 12.342 1.22064 12.0607 0.93934C11.7794 0.658035 11.3978 0.5 11 0.5H2C1.60218 0.5 1.22064 0.658035 0.93934 0.93934C0.658035 1.22064 0.5 1.60218 0.5 2V17C0.5 17.3978 0.658035 17.7794 0.93934 18.0607C1.22064 18.342 1.60218 18.5 2 18.5H9.5V20C9.5 20.3978 9.65804 20.7794 9.93934 21.0607C10.2206 21.342 10.6022 21.5 11 21.5H20C20.3978 21.5 20.7794 21.342 21.0607 21.0607C21.342 20.7794 21.5 20.3978 21.5 20V5C21.5 4.60218 21.342 4.22064 21.0607 3.93934C20.7794 3.65804 20.3978 3.5 20 3.5ZM2 10.25H6.6275L4.6925 12.1925L5.75 13.25L9.5 9.5L5.75 5.75L4.6925 6.8075L6.6275 8.75H2V2H11V17H2V10.25ZM11 20V18.5C11.3978 18.5 11.7794 18.342 12.0607 18.0607C12.342 17.7794 12.5 17.3978 12.5 17V5H20V11.75H15.3725L17.3075 9.8075L16.25 8.75L12.5 12.5L16.25 16.25L17.3075 15.1925L15.3725 13.25H20V20H11Z" fill="#E50914"/>
</svg>
