<svg width="32" height="27" viewBox="0 0 32 27" fill="none" xmlns="http://www.w3.org/2000/svg">
<path fill-rule="evenodd" clip-rule="evenodd" d="M1.49143 0.0730557C0.940029 0.245962 0.387944 0.740016 0.135283 1.28678L0 1.57951V10.6568V19.734L0.16577 20.0876C0.366221 20.5151 0.733756 20.8962 1.14818 21.1062C1.46983 21.2692 1.53368 21.3565 1.53381 21.6329C1.53381 21.7247 1.61406 21.9689 1.71216 22.1755C2.00595 22.7943 2.60618 23.2534 3.2583 23.3581C3.3944 23.3799 9.02719 24.0195 15.7757 24.7793C24.2111 25.729 28.169 26.1516 28.4403 26.1314C29.2297 26.0726 30.0613 25.4709 30.296 24.7888C30.4268 24.4089 32.043 7.32548 31.9991 6.78754C31.9606 6.3159 31.7256 5.84106 31.3329 5.44217C30.9581 5.06142 30.5665 4.89978 29.7888 4.80463C29.4843 4.76738 29.1464 4.72293 29.038 4.70597L28.8409 4.67504L28.8189 3.1572L28.7969 1.63929L28.5928 1.22487C28.3553 0.742582 28.0158 0.411418 27.521 0.179416L27.1692 0.0144603L14.461 0.00275372C4.13635 -0.00676176 1.70383 0.00644729 1.49143 0.0730557ZM27.1128 1.16665C27.5168 1.35013 27.6658 1.61331 27.6923 2.18987L27.7146 2.67504H14.3738H1.03293V2.32873C1.03293 1.74722 1.24665 1.36879 1.69025 1.16514C1.93058 1.05478 2.44222 1.05015 14.3984 1.05015C26.4136 1.05015 26.8653 1.05428 27.1128 1.16665ZM27.7013 5.33562V6.93196H14.3671H1.03293V5.33562V3.73927H14.3671H27.7013V5.33562ZM30.1688 5.83531C30.4489 5.88664 30.7466 6.14982 30.8598 6.44605C30.9586 6.70491 30.9358 6.99413 30.1467 15.4774C29.2537 25.0792 29.3216 24.5776 28.8743 24.8785C28.7629 24.9535 28.573 25.0317 28.4525 25.0521C28.1146 25.1095 3.40811 22.3031 3.17072 22.1803C2.94542 22.0638 2.69344 21.7443 2.63629 21.5025L2.5956 21.3304H14.8331C27.0564 21.3304 27.071 21.3303 27.417 21.2007C27.9018 21.0194 28.3866 20.5599 28.615 20.0653L28.7969 19.6714L28.8141 12.6889L28.8313 5.70635L29.4088 5.75405C29.7264 5.78034 30.0684 5.8169 30.1688 5.83531ZM27.7013 13.7587C27.7013 20.1446 27.7295 19.7195 27.2837 20.0594L27.0538 20.2349L14.5598 20.2527C7.68813 20.2625 1.97265 20.2539 1.85865 20.2335C1.57863 20.1835 1.17604 19.8086 1.0971 19.5245C1.05634 19.3777 1.03349 17.2724 1.03331 13.646L1.03293 7.9962H14.3671H27.7013V13.7587ZM2.36766 10.1991C2.07412 10.341 2.0303 10.809 2.28653 11.0653C2.40529 11.184 2.50382 11.1889 4.77815 11.1889H7.14606L7.28222 11.044C7.48537 10.8277 7.47072 10.4253 7.25336 10.2544C7.0931 10.1284 7.02368 10.1248 4.79624 10.1289C3.32754 10.1316 2.45506 10.1568 2.36766 10.1991ZM8.6989 10.2676C8.47992 10.456 8.46872 10.8177 8.67499 11.0373L8.81741 11.1889H11.1736C13.4539 11.1889 13.5341 11.1848 13.6659 11.0619C13.9416 10.8051 13.894 10.3396 13.5774 10.1954C13.4712 10.1469 12.7038 10.1247 11.1437 10.1247H8.86517L8.6989 10.2676ZM2.27245 12.4438C2.10755 12.6087 2.08677 12.6659 2.11882 12.8664C2.19488 13.3416 1.98028 13.3174 6.11345 13.3174H9.80289L9.95651 13.1637C10.1254 12.9948 10.1613 12.6692 10.0299 12.4981C9.84521 12.2574 9.77547 12.2531 6.07169 12.2531H2.46313L2.27245 12.4438ZM11.3497 12.4438C11.1848 12.6087 11.164 12.6659 11.1961 12.8664C11.2624 13.2804 11.3686 13.3174 12.4909 13.3174C13.0351 13.3174 13.5261 13.2998 13.5818 13.2785C13.7055 13.231 13.8663 12.9337 13.8663 12.7522C13.8663 12.679 13.784 12.5368 13.6833 12.4361L13.5003 12.2531H12.5204H11.5404L11.3497 12.4438ZM16.8377 12.3127C16.5228 12.4404 16.5269 12.4024 16.5269 15.2104V17.8355L16.7025 17.9866L16.8782 18.1377H21.3536H25.829L25.9826 17.984L26.1363 17.8304L26.1343 15.2139C26.1322 12.4576 26.1346 12.4812 25.843 12.3259C25.6814 12.2399 17.0487 12.2271 16.8377 12.3127ZM25.072 15.1954V17.0735H21.3472H17.6224V15.1954V13.3174H21.3472H25.072V15.1954Z" fill="#E50914"/>
</svg>
