<svg width="32" height="22" viewBox="0 0 32 22" fill="none" xmlns="http://www.w3.org/2000/svg">
<path fill-rule="evenodd" clip-rule="evenodd" d="M11.2487 0.0299072C9.30137 0.3088 7.9716 0.946528 6.71296 2.20523C5.64796 3.27017 4.99173 4.47456 4.64458 6.00104C4.57064 6.32624 4.53964 6.75983 4.53807 7.491C4.53614 8.40106 4.5552 8.59951 4.70021 9.17861C5.15161 10.9813 6.05986 12.3704 7.4932 13.4501C9.63708 15.065 12.432 15.4183 14.8739 14.3828C16.5825 13.6583 17.8606 12.4486 18.6885 10.7725C19.5109 9.10717 19.6914 7.33487 19.2185 5.56782C18.4261 2.6067 15.989 0.475811 12.9162 0.0571592C12.4555 -0.00559475 11.595 -0.0196584 11.2487 0.0299072ZM13.2946 1.08085C14.6489 1.36574 15.7462 1.98034 16.7117 2.99497C17.5882 3.91603 18.1351 4.95297 18.3866 6.17098C18.5538 6.98022 18.5196 8.39731 18.3147 9.14736C17.7625 11.1691 16.3062 12.7912 14.3426 13.5717C13.5916 13.8702 12.903 13.9914 11.9579 13.9914C10.2286 13.9914 8.77428 13.412 7.52683 12.2259C6.32575 11.0839 5.6779 9.78146 5.49095 8.1328C5.35519 6.93572 5.57283 5.76846 6.15243 4.58457C7.10886 2.63101 8.97267 1.29374 11.1549 0.995218C11.7071 0.919651 12.7214 0.960279 13.2946 1.08085ZM11.7715 2.06379C11.5855 2.15385 11.4987 2.37737 11.4987 2.76646C11.4987 3.1993 11.6625 3.42825 11.972 3.42825C12.3274 3.42825 12.4363 3.2608 12.4363 2.71401C12.4363 2.28693 12.4231 2.23936 12.2716 2.12023C12.0913 1.97841 11.9749 1.96528 11.7715 2.06379ZM14.0209 4.81396L12.6925 6.13717L12.3496 6.06048C11.2404 5.81221 10.3198 6.73171 10.5678 7.84009L10.6441 8.18117L10.0714 8.76521C9.72028 9.12317 9.49858 9.39956 9.49858 9.47925C9.49858 9.70433 9.7629 9.94903 9.99873 9.94235C10.174 9.93735 10.2978 9.84697 10.7748 9.37581C11.295 8.86203 11.3555 8.82034 11.4987 8.87634C11.5846 8.90991 11.8189 8.93691 12.0193 8.93622C12.5345 8.9346 12.959 8.69039 13.2332 8.23799C13.4096 7.94685 13.4358 7.84909 13.4319 7.49376C13.4295 7.2688 13.4041 7.02848 13.3756 6.95972C13.3315 6.85359 13.5227 6.63464 14.6405 5.51119C15.8101 4.33556 15.9573 4.16504 15.9573 3.98553C15.9573 3.75452 15.7046 3.49075 15.4831 3.49075C15.3924 3.49075 14.9214 3.91697 14.0209 4.81396ZM20.7265 6.12048C20.5201 6.2828 20.5006 6.61732 20.6868 6.80346C20.8055 6.92216 20.8951 6.92847 22.4681 6.92847C23.7332 6.92847 24.1245 6.94653 24.1245 7.00504C24.1245 7.0471 23.4073 9.75802 22.5307 13.0293C21.654 16.3006 20.9368 18.9944 20.9368 19.0156C20.9368 19.0369 19.3375 19.0542 17.3828 19.0542H13.8288L13.7903 18.7299C13.7138 18.0836 13.3386 17.5508 12.7314 17.2264C12.5031 17.1044 12.3741 17.0854 11.7753 17.0854C11.0872 17.0854 11.0798 17.0869 10.5496 17.3496C10.1314 17.5569 9.9261 17.7096 9.59833 18.057C9.36844 18.3007 9.1198 18.6248 9.04573 18.7772L8.9111 19.0542H7.88804C6.9431 19.0542 6.86747 19.0459 6.89716 18.9449C7.0533 18.414 7.81097 15.5294 7.81097 15.4656C7.81097 15.4204 7.75265 15.3092 7.6814 15.2187C7.52433 15.019 7.18455 14.9929 7.01035 15.1671C6.9056 15.2718 6.68571 16.0215 6.08323 18.328C5.85122 19.2161 5.86109 19.4664 6.1383 19.7261C6.38294 19.9553 6.59627 19.9918 7.69002 19.9918H8.74853L8.74859 20.2574C8.74865 20.6369 9.04536 21.2277 9.37944 21.5136C9.76615 21.8447 10.3733 22.0215 10.9419 21.9687C11.6703 21.901 12.2751 21.6094 12.8642 21.0417C13.142 20.7742 13.5613 20.1819 13.5613 20.0573C13.5613 20.0122 15.2186 19.9918 18.8974 19.9918H24.2334L24.2744 20.3007C24.3334 20.7455 24.4684 21.0264 24.7866 21.3666C25.6681 22.309 27.3165 22.1424 28.4373 20.9977C28.6607 20.7695 28.9088 20.4498 28.9886 20.2873C29.1091 20.0418 29.1627 19.9918 29.3054 19.9918C29.8644 19.9918 30.608 19.5148 30.8799 18.9819C31.0473 18.654 32 15.0719 32 14.7708C32 14.2771 31.8105 14.0407 30.8684 13.3595L29.9999 12.7314L29.9985 10.3456C29.9969 7.6782 29.9877 7.61451 29.5535 7.28674C29.1991 7.01916 28.9601 6.99172 26.9841 6.99135L25.1246 6.99097V6.82853C25.1246 6.53432 24.942 6.25449 24.6615 6.11867C24.4149 5.99929 24.2824 5.99091 22.6443 5.99091C20.9653 5.99091 20.8842 5.99641 20.7265 6.12048ZM12.3581 7.13548C12.5526 7.31156 12.5468 7.6362 12.3453 7.83759C12.1441 8.03879 11.8202 8.04466 11.6402 7.8504C11.3893 7.57957 11.4506 7.15642 11.7598 7.02647C11.99 6.92966 12.1661 6.96172 12.3581 7.13548ZM6.77115 7.06067C6.63764 7.12873 6.49838 7.36156 6.49838 7.51676C6.49838 7.70452 6.75296 7.92153 7.02023 7.96166C7.72503 8.06735 8.17987 7.61858 7.81934 7.1733C7.72334 7.05473 7.63196 7.02598 7.30369 7.01091C7.08423 7.00085 6.84459 7.02323 6.77115 7.06067ZM16.2108 7.13736C15.9954 7.32262 15.9809 7.62564 16.1778 7.82265C16.2927 7.93747 16.3855 7.95978 16.749 7.95978C17.2599 7.95978 17.4574 7.82728 17.4574 7.48457C17.4574 7.16573 17.2066 6.99097 16.749 6.99097C16.4532 6.99097 16.3476 7.01966 16.2108 7.13736ZM28.9873 8.06604C29.0309 8.10967 29.0623 8.31881 29.0623 8.56607V8.9911H28.0028C26.7459 8.9911 26.4308 9.04817 25.9909 9.35543C25.5262 9.68014 25.3513 10.0036 25.0552 11.087C24.7433 12.2278 24.74 12.6001 25.0387 12.9748C25.4105 13.4411 25.4854 13.4563 27.5935 13.4914L29.4686 13.5226L30.1938 14.0364C31.0201 14.6218 31.0798 14.6803 31.0516 14.8787C31.0328 15.0117 30.9969 15.0241 30.5854 15.0409C30.0754 15.0618 29.9166 15.1714 29.9166 15.5022C29.9166 15.7772 30.1755 15.9915 30.5076 15.9915C30.717 15.9915 30.753 16.0095 30.726 16.1009C30.7082 16.1611 30.5625 16.7025 30.4024 17.3041C30.0738 18.5383 30.0158 18.6774 29.7504 18.8663C29.4615 19.0721 29.3532 19.0155 29.2977 18.6296C29.2326 18.1777 29.0628 17.8723 28.69 17.5372C28.3015 17.1879 27.9274 17.0541 27.3389 17.0541C26.242 17.0541 25.1961 17.6952 24.6113 18.7261L24.4251 19.0542H23.181C22.4967 19.0542 21.9356 19.0332 21.9342 19.0074C21.9327 18.9815 22.1084 18.2926 22.3248 17.4762L22.7182 15.9919L25.6055 15.9917L28.4928 15.9915L28.663 15.8452C28.866 15.6706 28.8914 15.37 28.7193 15.1798C28.6084 15.0573 28.532 15.054 25.8024 15.054C24.2608 15.054 22.9994 15.0299 22.9994 15.0005C22.9994 14.9505 24.7853 8.23861 24.8437 8.06917C24.8818 7.9586 28.8769 7.9556 28.9873 8.06604ZM29.0623 11.2423V12.4934L27.4216 12.4768L25.7809 12.4601L25.7873 12.2101C25.7909 12.0725 25.8871 11.6225 26.0012 11.21C26.1796 10.565 26.2411 10.4271 26.4405 10.2256L26.6725 9.99116H27.8674H29.0623V11.2423ZM11.8335 11.5538C11.6045 11.6453 11.4987 11.8657 11.4987 12.2517C11.4987 12.6956 11.6768 12.9497 11.988 12.9497C12.3355 12.9497 12.4363 12.7905 12.4363 12.2413C12.4363 11.8618 12.4133 11.7405 12.3269 11.6646C12.1756 11.5317 11.9921 11.4905 11.8335 11.5538ZM0.351433 13.5555C0.0055981 13.6591 -0.109659 14.0321 0.117418 14.3126L0.236863 14.4602L2.88322 14.4759C4.92891 14.4881 5.56483 14.4736 5.68477 14.4121C5.87191 14.3162 5.96923 14.0704 5.91135 13.8398C5.82797 13.5075 5.68552 13.4908 2.98454 13.4968C1.63414 13.4997 0.449251 13.5261 0.351433 13.5555ZM1.63395 15.6986C1.46625 15.8772 1.45982 16.1179 1.61758 16.3127L1.73702 16.4603H3.46694H5.19687L5.31631 16.3127C5.47126 16.1215 5.46876 15.837 5.31081 15.679C5.19193 15.5601 5.10248 15.554 3.47782 15.554C1.77334 15.554 1.76958 15.5543 1.63395 15.6986ZM3.12773 17.7188C2.96622 17.9241 2.96285 18.1217 3.11755 18.3129C3.22768 18.4491 3.29006 18.4621 3.92747 18.4815C4.59695 18.502 4.62289 18.4978 4.7769 18.3438C4.97173 18.1489 4.98673 17.8551 4.81078 17.6791C4.70033 17.5687 4.60245 17.5541 3.97154 17.5541C3.27431 17.5541 3.25418 17.5581 3.12773 17.7188ZM12.3503 18.1204C13.0843 18.4758 13.0153 19.5401 12.2054 20.3541C11.4441 21.1193 10.2989 21.2541 9.84441 20.6319C9.64396 20.3575 9.63621 19.7668 9.8276 19.3563C10.3163 18.3081 11.52 17.7185 12.3503 18.1204ZM27.8735 18.1012C28.3465 18.3388 28.5011 18.9112 28.273 19.5806C28.1235 20.0194 27.5435 20.6145 27.048 20.8373C26.5778 21.0489 26.0211 21.08 25.7077 20.9123C25.1894 20.635 25.0604 19.9713 25.3929 19.2931C25.616 18.8379 26.1942 18.2957 26.6383 18.1251C27.0531 17.9657 27.5834 17.9554 27.8735 18.1012ZM10.9362 19.1792C10.75 19.3654 10.7695 19.6999 10.9759 19.8622C11.1943 20.0341 11.4078 20.0259 11.5953 19.8383C11.7828 19.6509 11.791 19.4374 11.6191 19.2189C11.4568 19.0125 11.1223 18.9931 10.9362 19.1792ZM26.4417 19.2189C26.2877 19.4147 26.2816 19.5013 26.4048 19.7397C26.6138 20.1439 27.1979 20.0011 27.2376 19.536C27.2762 19.0848 26.7211 18.8637 26.4417 19.2189Z" fill="#E50914"/>
</svg>
