<svg width="13" height="12" viewBox="0 0 13 12" fill="none" xmlns="http://www.w3.org/2000/svg">
<path d="M6.494 0C3.182 0 0.5 2.688 0.5 6C0.5 9.312 3.182 12 6.494 12C9.812 12 12.5 9.312 12.5 6C12.5 2.688 9.812 0 6.494 0ZM10.652 3.6H8.882C8.69421 2.85687 8.41614 2.13954 8.054 1.464C9.14847 1.8408 10.0707 2.59903 10.652 3.6ZM6.5 1.224C6.998 1.944 7.388 2.742 7.646 3.6H5.354C5.612 2.742 6.002 1.944 6.5 1.224ZM1.856 7.2C1.76 6.816 1.7 6.414 1.7 6C1.7 5.586 1.76 5.184 1.856 4.8H3.884C3.836 5.196 3.8 5.592 3.8 6C3.8 6.408 3.836 6.804 3.884 7.2H1.856ZM2.348 8.4H4.118C4.31 9.15 4.586 9.87 4.946 10.536C3.85038 10.1613 2.9275 9.40249 2.348 8.4ZM4.118 3.6H2.348C2.9275 2.59751 3.85038 1.83874 4.946 1.464C4.58386 2.13954 4.30579 2.85687 4.118 3.6ZM6.5 10.776C6.002 10.056 5.612 9.258 5.354 8.4H7.646C7.388 9.258 6.998 10.056 6.5 10.776ZM7.904 7.2H5.096C5.042 6.804 5 6.408 5 6C5 5.592 5.042 5.19 5.096 4.8H7.904C7.958 5.19 8 5.592 8 6C8 6.408 7.958 6.804 7.904 7.2ZM8.054 10.536C8.414 9.87 8.69 9.15 8.882 8.4H10.652C10.0707 9.40097 9.14847 10.1592 8.054 10.536ZM9.116 7.2C9.164 6.804 9.2 6.408 9.2 6C9.2 5.592 9.164 5.196 9.116 4.8H11.144C11.24 5.184 11.3 5.586 11.3 6C11.3 6.414 11.24 6.816 11.144 7.2H9.116Z" fill="#E50914"/>
</svg>
