<svg width="188" height="42" viewBox="0 0 188 42" fill="none" xmlns="http://www.w3.org/2000/svg">
<path d="M50.2312 30.2908C51.3926 30.2908 52.313 30.0059 52.9923 29.4362C53.6935 28.8445 54.2084 28.1762 54.5371 27.4311V24.3085H53.0909C50.9653 24.3085 49.4314 24.5386 48.4891 24.9988C47.5688 25.437 47.1086 26.2916 47.1086 27.5626C47.1086 28.461 47.4154 29.1403 48.029 29.6005C48.6644 30.0607 49.3985 30.2908 50.2312 30.2908ZM55.063 32C54.9754 31.6932 54.8987 31.3316 54.833 30.9153C54.7672 30.4989 54.7124 30.0497 54.6686 29.5676C54.4714 29.8963 54.2303 30.225 53.9455 30.5537C53.6825 30.8824 53.3538 31.1782 52.9594 31.4412C52.565 31.7042 52.0938 31.9123 51.546 32.0657C50.9982 32.241 50.3627 32.3287 49.6396 32.3287C48.9164 32.3287 48.2371 32.2301 47.6017 32.0329C46.9662 31.8356 46.3964 31.5398 45.8924 31.1454C45.4103 30.7509 45.0269 30.2689 44.742 29.6991C44.4571 29.1294 44.3147 28.472 44.3147 27.7269C44.3147 25.9301 45.0269 24.6262 46.4512 23.8155C47.8975 22.9828 50.023 22.5664 52.8279 22.5664H54.5371V21.2188C54.5371 19.8821 54.2523 18.885 53.6825 18.2276C53.1128 17.5702 52.1048 17.2416 50.6585 17.2416C49.6724 17.2416 48.774 17.4278 47.9632 17.8003C47.1743 18.1509 46.4731 18.5783 45.8596 19.0823L45.1036 16.7814C45.3665 16.5842 45.7062 16.3869 46.1225 16.1897C46.5389 15.9925 47.01 15.8172 47.5359 15.6638C48.0618 15.5104 48.6206 15.3899 49.2123 15.3023C49.8039 15.1927 50.4065 15.1379 51.0201 15.1379C53.1018 15.1379 54.6686 15.5981 55.7204 16.5184C56.7942 17.4169 57.331 18.8522 57.331 20.8243V29.3376C57.331 29.7101 57.353 30.1812 57.3968 30.7509C57.4406 31.2988 57.4954 31.7151 57.5611 32H55.063Z" fill="#494C4C"/>
<path d="M68.7024 18.0962C68.1326 18.0523 67.5738 18.0962 67.026 18.2276C66.4782 18.3591 65.9632 18.5673 65.4812 18.8522C65.021 19.137 64.5937 19.4876 64.1992 19.904C63.8267 20.3203 63.5309 20.7805 63.3118 21.2845V32H60.5178V15.4666H62.9831L63.246 19.0494H63.3118C63.5309 18.5673 63.8048 18.1071 64.1335 17.6689C64.4841 17.2087 64.8785 16.8142 65.3168 16.4856C65.777 16.1349 66.281 15.8501 66.8288 15.6309C67.3985 15.4118 68.0231 15.3023 68.7024 15.3023V18.0962Z" fill="#494C4C"/>
<path d="M69.7367 32V29.732L79.2032 17.373H69.9997V15.4666H81.767V17.9318L72.4978 30.0936H81.7999V32H69.7367Z" fill="#494C4C"/>
<path d="M90.5039 32.3287C89.4301 32.3287 88.4112 32.1424 87.447 31.7699C86.4828 31.3755 85.6392 30.8167 84.916 30.0936C84.1929 29.3485 83.6122 28.4501 83.174 27.3982C82.7576 26.3245 82.5494 25.0974 82.5494 23.7169C82.5494 22.3363 82.7576 21.1202 83.174 20.0683C83.6122 18.9946 84.1929 18.0962 84.916 17.373C85.6392 16.6499 86.4828 16.1021 87.447 15.7296C88.4112 15.3351 89.4301 15.1379 90.5039 15.1379C91.5776 15.1379 92.5966 15.3351 93.5607 15.7296C94.5468 16.1021 95.4014 16.6499 96.1246 17.373C96.8696 18.0962 97.4613 18.9946 97.8995 20.0683C98.3378 21.1202 98.5569 22.3363 98.5569 23.7169C98.5569 25.0974 98.3378 26.3245 97.8995 27.3982C97.4613 28.4501 96.8696 29.3485 96.1246 30.0936C95.4014 30.8167 94.5468 31.3755 93.5607 31.7699C92.5966 32.1424 91.5776 32.3287 90.5039 32.3287ZM90.5039 30.2579C91.1613 30.2579 91.7967 30.1483 92.4103 29.9292C93.0458 29.6882 93.6046 29.3047 94.0867 28.7788C94.5687 28.2529 94.9522 27.5736 95.2371 26.7409C95.5439 25.9082 95.6973 24.9002 95.6973 23.7169C95.6973 22.5336 95.5439 21.5365 95.2371 20.7257C94.9522 19.893 94.5687 19.2137 94.0867 18.6878C93.6046 18.1619 93.0458 17.7894 92.4103 17.5703C91.7967 17.3292 91.1613 17.2087 90.5039 17.2087C89.8465 17.2087 89.211 17.3292 88.5974 17.5703C88.0058 17.7894 87.4689 18.1619 86.9868 18.6878C86.5047 19.2137 86.1213 19.893 85.8364 20.7257C85.5515 21.5365 85.4091 22.5336 85.4091 23.7169C85.4091 24.9002 85.5515 25.9082 85.8364 26.7409C86.1213 27.5736 86.5047 28.2529 86.9868 28.7788C87.4689 29.3047 88.0058 29.6882 88.5974 29.9292C89.211 30.1483 89.8465 30.2579 90.5039 30.2579Z" fill="#494C4C"/>
<path d="M108.758 17.373C107.487 17.373 106.457 17.6798 105.668 18.2934C104.879 18.9069 104.232 19.6739 103.728 20.5942V32H100.935V15.4666H103.564L103.663 18.4249H103.728C104.167 17.4826 104.868 16.7047 105.832 16.0911C106.796 15.4556 108.012 15.1379 109.481 15.1379C111.124 15.1379 112.428 15.5762 113.392 16.4527C114.356 17.3073 114.838 18.6221 114.838 20.397V32H112.012V20.5285C112.012 19.3452 111.727 18.5235 111.157 18.0633C110.587 17.6031 109.787 17.373 108.758 17.373Z" fill="#494C4C"/>
<path d="M125.967 32.3287C124.433 32.3287 123.107 31.9342 121.99 31.1454C120.894 30.3346 120.083 29.2061 119.557 27.7598L119.393 32H118.374V8.16956H119.59V19.6082C120.138 18.1838 120.96 17.0882 122.056 16.3212C123.151 15.5323 124.466 15.1379 126 15.1379C127.03 15.1379 127.994 15.3242 128.892 15.6967C129.791 16.0692 130.569 16.628 131.226 17.373C131.905 18.0962 132.431 18.9946 132.804 20.0683C133.198 21.1202 133.396 22.3363 133.396 23.7169C133.396 25.0974 133.198 26.3245 132.804 27.3982C132.431 28.472 131.905 29.3704 131.226 30.0936C130.569 30.8167 129.78 31.3755 128.86 31.7699C127.961 32.1424 126.997 32.3287 125.967 32.3287ZM125.868 31.4083C126.767 31.4083 127.6 31.244 128.367 30.9153C129.133 30.5866 129.791 30.1045 130.339 29.469C130.908 28.8116 131.347 28.0009 131.653 27.0367C131.982 26.0725 132.147 24.9659 132.147 23.7169C132.147 22.4678 131.982 21.3612 131.653 20.397C131.347 19.4329 130.908 18.633 130.339 17.9976C129.791 17.3621 129.133 16.88 128.367 16.5513C127.6 16.2226 126.767 16.0583 125.868 16.0583C124.97 16.0583 124.137 16.2226 123.37 16.5513C122.603 16.88 121.935 17.3621 121.365 17.9976C120.817 18.633 120.379 19.4329 120.051 20.397C119.744 21.3612 119.59 22.4678 119.59 23.7169C119.59 24.9659 119.744 26.0725 120.051 27.0367C120.379 28.0009 120.817 28.8116 121.365 29.469C121.935 30.1045 122.603 30.5866 123.37 30.9153C124.137 31.244 124.97 31.4083 125.868 31.4083Z" fill="#707373"/>
<path d="M136.879 11.7852C136.572 11.7852 136.32 11.6866 136.123 11.4894C135.948 11.2703 135.86 11.0292 135.86 10.7663C135.86 10.5033 135.948 10.2732 136.123 10.076C136.32 9.85686 136.572 9.74729 136.879 9.74729C137.186 9.74729 137.427 9.85686 137.602 10.076C137.778 10.2732 137.865 10.5033 137.865 10.7663C137.865 11.0292 137.778 11.2703 137.602 11.4894C137.427 11.6866 137.186 11.7852 136.879 11.7852ZM137.471 15.4666V32H136.255V15.4666H137.471Z" fill="#707373"/>
<path d="M139.975 32V31.3097L149.934 16.3869H140.238V15.4666H151.479V16.1569L141.519 31.0796H151.512V32H139.975Z" fill="#707373"/>
<path d="M160.355 31.4083C161.253 31.4083 162.086 31.244 162.853 30.9153C163.642 30.5647 164.31 30.0716 164.858 29.4362C165.428 28.7788 165.866 27.9789 166.173 27.0367C166.502 26.0725 166.666 24.9659 166.666 23.7169C166.666 22.4678 166.502 21.3722 166.173 20.4299C165.866 19.4657 165.428 18.6659 164.858 18.0304C164.31 17.373 163.642 16.88 162.853 16.5513C162.086 16.2226 161.253 16.0583 160.355 16.0583C159.457 16.0583 158.613 16.2226 157.824 16.5513C157.057 16.88 156.389 17.373 155.819 18.0304C155.271 18.6659 154.833 19.4657 154.504 20.4299C154.197 21.3722 154.044 22.4678 154.044 23.7169C154.044 24.9659 154.197 26.0725 154.504 27.0367C154.833 27.9789 155.271 28.7788 155.819 29.4362C156.389 30.0716 157.057 30.5647 157.824 30.9153C158.613 31.244 159.457 31.4083 160.355 31.4083ZM166.666 27.6941C166.14 29.1403 165.329 30.2798 164.234 31.1125C163.138 31.9233 161.801 32.3287 160.224 32.3287C159.194 32.3287 158.229 32.1424 157.331 31.7699C156.433 31.3755 155.644 30.8167 154.964 30.0936C154.307 29.3704 153.781 28.472 153.387 27.3982C153.014 26.3245 152.828 25.0974 152.828 23.7169C152.828 22.3363 153.014 21.1202 153.387 20.0683C153.781 18.9946 154.307 18.0962 154.964 17.373C155.644 16.628 156.433 16.0692 157.331 15.6967C158.229 15.3242 159.194 15.1379 160.224 15.1379C161.757 15.1379 163.072 15.5214 164.168 16.2883C165.285 17.0334 166.107 18.1181 166.633 19.5424V8.16956H167.849V32H166.797L166.666 27.6941Z" fill="#707373"/>
<path d="M176.49 31.3755C177.3 31.3755 178.002 31.244 178.593 30.981C179.207 30.7181 179.722 30.3894 180.138 29.9949C180.554 29.6005 180.894 29.1842 181.157 28.7459C181.442 28.2857 181.661 27.8694 181.814 27.4969V23.2567H178.659C176.402 23.2567 174.737 23.5963 173.663 24.2756C172.611 24.9549 172.085 26.0068 172.085 27.4311C172.085 28.7021 172.458 29.6772 173.203 30.3565C173.97 31.0358 175.065 31.3755 176.49 31.3755ZM182.209 32C182.099 31.6494 182.012 31.2221 181.946 30.7181C181.88 30.2141 181.847 29.6115 181.847 28.9102C181.65 29.3047 181.398 29.7101 181.091 30.1264C180.806 30.5209 180.445 30.8824 180.007 31.2111C179.568 31.5398 179.042 31.8028 178.429 32C177.837 32.2191 177.136 32.3287 176.325 32.3287C174.638 32.3287 173.301 31.9123 172.315 31.0796C171.351 30.225 170.869 29.0198 170.869 27.464C170.869 25.7986 171.515 24.5386 172.808 23.684C174.123 22.8294 176.04 22.4021 178.56 22.4021H181.814V20.397C181.814 18.9069 181.442 17.8222 180.697 17.1429C179.952 16.4636 178.801 16.124 177.246 16.124C176.084 16.124 175.087 16.2883 174.254 16.617C173.422 16.9238 172.699 17.3182 172.085 17.8003L171.592 16.7814C172.096 16.4308 172.83 16.0692 173.794 15.6967C174.78 15.3242 175.964 15.1379 177.344 15.1379C179.163 15.1379 180.565 15.5543 181.552 16.3869C182.538 17.2196 183.031 18.5125 183.031 20.2656V28.8774C183.031 29.4909 183.053 30.0826 183.096 30.6523C183.14 31.2002 183.217 31.6494 183.326 32H182.209Z" fill="#707373"/>
<path d="M17.3361 5.58557C24.4406 1.11116 33.6 6.68775 32.8869 15.0535C32.699 17.2581 33.2353 19.4639 34.4144 21.3361C38.8888 28.4406 33.3122 37.6 24.9465 36.8869C22.7419 36.699 20.5361 37.2353 18.6639 38.4144C11.5594 42.8888 2.39998 37.3122 3.11307 28.9465C3.30099 26.7419 2.7647 24.5361 1.58557 22.6639C-2.88884 15.5594 2.68775 6.39998 11.0535 7.11307C13.2581 7.30099 15.4639 6.7647 17.3361 5.58557Z" fill="#E50914"/>
<path d="M12.4495 29.1837C12.9486 29.1837 13.3436 29.068 13.6347 28.8367C13.9397 28.5918 14.1753 28.2925 14.3416 27.9388V26.0612H13.5099C12.5674 26.0612 11.9089 26.2041 11.5347 26.4898C11.1743 26.7755 10.9941 27.1905 10.9941 27.7347C10.9941 28.2245 11.1258 28.5918 11.3891 28.8367C11.6525 29.068 12.006 29.1837 12.4495 29.1837ZM14.7575 30.7959C14.6882 30.619 14.6258 30.415 14.5704 30.1837C14.5288 29.9388 14.4941 29.6803 14.4664 29.4082C14.3416 29.5986 14.1892 29.7891 14.009 29.9796C13.8288 30.1701 13.6208 30.3401 13.3852 30.4898C13.1495 30.6395 12.8723 30.7619 12.5535 30.8571C12.2347 30.9524 11.8743 31 11.4723 31C10.9733 31 10.5089 30.9388 10.0792 30.8163C9.64952 30.6939 9.28219 30.5102 8.97724 30.2653C8.67228 30.0068 8.42971 29.6871 8.24951 29.3061C8.08317 28.9252 8 28.483 8 27.9796C8 26.9728 8.44357 26.1633 9.3307 25.551C10.2178 24.9252 11.5901 24.6122 13.4476 24.6122H14.3416V24.0408C14.3416 23.4286 14.1892 22.9728 13.8842 22.6735C13.5793 22.3605 13.0109 22.2041 12.1792 22.2041C11.5693 22.2041 11.0426 22.3061 10.599 22.5102C10.1555 22.7007 9.71883 22.9456 9.28912 23.2449L8.41585 21.1837C8.85941 20.9252 9.41387 20.7075 10.0792 20.5306C10.7584 20.3401 11.604 20.2449 12.6159 20.2449C14.1406 20.2449 15.3119 20.5374 16.1298 21.1224C16.9615 21.6939 17.3773 22.6327 17.3773 23.9388V29.1429C17.3773 29.3741 17.3842 29.6667 17.3981 30.0204C17.4258 30.3605 17.4605 30.619 17.5021 30.7959H14.7575Z" fill="white"/>
<path d="M25.3633 31C24.5178 31 23.8039 30.8095 23.2217 30.4286C22.6534 30.0476 22.196 29.5442 21.8494 28.9184L21.6415 30.7959H18.9801V16H22.0158V22.0408C22.3762 21.483 22.8336 21.0476 23.3881 20.7347C23.9425 20.4082 24.6148 20.2449 25.4049 20.2449C26.0287 20.2449 26.6178 20.3537 27.1723 20.5714C27.7267 20.7891 28.2119 21.1224 28.6277 21.5714C29.0436 22.0068 29.3762 22.5646 29.6257 23.2449C29.8752 23.9116 30 24.7007 30 25.6122C30 26.5238 29.8752 27.3197 29.6257 28C29.3762 28.6667 29.0366 29.2245 28.6069 29.6735C28.1911 30.1224 27.699 30.4558 27.1307 30.6735C26.5762 30.8912 25.9871 31 25.3633 31ZM24.4901 29.0612C25.197 29.0612 25.7722 28.7891 26.2158 28.2449C26.6732 27.6871 26.902 26.8095 26.902 25.6122C26.902 24.415 26.6732 23.5442 26.2158 23C25.7722 22.4422 25.197 22.1633 24.4901 22.1633C24.1435 22.1633 23.8178 22.2313 23.5128 22.3673C23.2079 22.5034 22.9445 22.7143 22.7227 23C22.5009 23.2721 22.3207 23.6258 22.1821 24.0612C22.0574 24.4966 21.995 25.0136 21.995 25.6122C21.995 26.2109 22.0574 26.7279 22.1821 27.1633C22.3207 27.5986 22.5009 27.9592 22.7227 28.2449C22.9445 28.517 23.2079 28.7211 23.5128 28.8571C23.8178 28.9932 24.1435 29.0612 24.4901 29.0612Z" fill="white"/>
</svg>
