<svg width="19" height="19" viewBox="0 0 19 19" fill="none" xmlns="http://www.w3.org/2000/svg">
<path d="M9.00201 18.8998C6.54201 18.8998 6.25201 18.8868 5.29201 18.8448C4.54338 18.8202 3.80444 18.668 3.10701 18.3948C2.51019 18.1625 1.96819 17.8087 1.51543 17.3557C1.06267 16.9028 0.709048 16.3607 0.477014 15.7638C0.21432 15.0638 0.072632 14.3243 0.0580141 13.5768C0.00201415 12.6188 0.00201416 12.3048 0.00201416 9.86377C0.00201416 7.39677 0.0150142 7.10877 0.0580141 6.15377C0.0729518 5.40729 0.214635 4.66878 0.477014 3.96977C0.708781 3.37211 1.06265 2.82935 1.51601 2.37616C1.96937 1.92297 2.51226 1.56931 3.11001 1.33777C3.80866 1.07397 4.54736 0.931914 5.29401 0.917769C6.24901 0.863769 6.56301 0.86377 9.00201 0.86377C11.482 0.86377 11.767 0.876769 12.712 0.917769C13.46 0.931769 14.202 1.07377 14.902 1.33777C15.4996 1.56958 16.0424 1.92333 16.4957 2.37649C16.949 2.82964 17.303 3.37226 17.535 3.96977C17.802 4.67977 17.945 5.42977 17.956 6.18677C18.012 7.14477 18.012 7.45777 18.012 9.89777C18.012 12.3378 17.998 12.6578 17.956 13.6048C17.9411 14.353 17.799 15.0932 17.536 15.7938C17.3034 16.3911 16.9491 16.9335 16.4957 17.3866C16.0422 17.8397 15.4995 18.1936 14.902 18.4258C14.202 18.6878 13.463 18.8298 12.716 18.8448C11.761 18.8998 11.448 18.8998 9.00201 18.8998V18.8998ZM8.96801 2.44677C6.52201 2.44677 6.26801 2.45877 5.31301 2.50177C4.74266 2.50923 4.17781 2.61442 3.64301 2.81277C3.25295 2.96229 2.89854 3.19188 2.60263 3.48675C2.30673 3.78162 2.07589 4.13523 1.92501 4.52477C1.72501 5.06477 1.62001 5.63577 1.61401 6.21177C1.56101 7.18077 1.56101 7.43477 1.56101 9.86377C1.56101 12.2638 1.57001 12.5548 1.61401 13.5178C1.62301 14.0878 1.72801 14.6528 1.92501 15.1878C2.23101 15.9748 2.85501 16.5968 3.64401 16.8988C4.17812 17.0984 4.74286 17.2036 5.31301 17.2098C6.28101 17.2658 6.53601 17.2658 8.96801 17.2658C11.421 17.2658 11.675 17.2538 12.622 17.2098C13.1924 17.2029 13.7574 17.0977 14.292 16.8988C14.68 16.7481 15.0324 16.5184 15.3268 16.2241C15.6212 15.9299 15.8511 15.5777 16.002 15.1898C16.202 14.6498 16.307 14.0778 16.313 13.5018H16.324C16.367 12.5458 16.367 12.2908 16.367 9.84777C16.367 7.40477 16.356 7.14777 16.313 6.19277C16.304 5.62323 16.1988 5.0593 16.002 4.52477C15.8515 4.13632 15.6217 3.78347 15.3273 3.48872C15.0329 3.19396 14.6803 2.96376 14.292 2.81277C13.7575 2.61345 13.1925 2.50823 12.622 2.50177C11.655 2.44677 11.402 2.44677 8.96801 2.44677V2.44677ZM9.00201 14.4828C8.08759 14.4834 7.19352 14.2128 6.4329 13.7052C5.67228 13.1976 5.07927 12.4759 4.72888 11.6312C4.37848 10.7866 4.28645 9.85702 4.4644 8.96008C4.64236 8.06313 5.08233 7.23911 5.72864 6.59223C6.37496 5.94535 7.1986 5.50468 8.09539 5.32594C8.99218 5.14721 9.92184 5.23844 10.7668 5.5881C11.6117 5.93776 12.334 6.53015 12.8422 7.29033C13.3504 8.05051 13.6218 8.94434 13.622 9.85877C13.6204 11.084 13.1333 12.2586 12.2673 13.1253C11.4014 13.992 10.2272 14.4801 9.00201 14.4828V14.4828ZM9.00201 6.85677C8.40867 6.85677 7.82865 7.03272 7.3353 7.36236C6.84196 7.69201 6.45744 8.16054 6.23037 8.70872C6.00331 9.2569 5.9439 9.8601 6.05966 10.442C6.17541 11.024 6.46114 11.5585 6.88069 11.9781C7.30025 12.3976 7.8348 12.6834 8.41674 12.7991C8.99869 12.9149 9.60189 12.8555 10.1501 12.6284C10.6982 12.4013 11.1668 12.0168 11.4964 11.5235C11.8261 11.0301 12.002 10.4501 12.002 9.85677C12.0002 9.06169 11.6835 8.2997 11.1213 7.73749C10.5591 7.17528 9.79709 6.85862 9.00201 6.85677ZM13.802 6.14377C13.6604 6.14324 13.5204 6.11484 13.3898 6.06018C13.2592 6.00552 13.1407 5.92567 13.0409 5.8252C12.8395 5.62229 12.727 5.34767 12.728 5.06177C12.7291 4.77587 12.8437 4.50209 13.0466 4.30068C13.2495 4.09927 13.5241 3.98671 13.81 3.98777C14.0959 3.98883 14.3697 4.10342 14.5711 4.30634C14.7725 4.50925 14.8851 4.78387 14.884 5.06977C14.883 5.35567 14.7684 5.62945 14.5654 5.83086C14.3625 6.03227 14.0879 6.14483 13.802 6.14377Z" fill="white"/>
</svg>
