<svg width="188" height="42" viewBox="0 0 188 42" fill="none" xmlns="http://www.w3.org/2000/svg">
<path d="M40.0039 28.6027C40.9288 28.6027 41.6617 28.3758 42.2027 27.9221C42.7612 27.4509 43.1713 26.9186 43.4331 26.3253V23.8385H42.2813C40.5885 23.8385 39.3669 24.0217 38.6165 24.3882C37.8835 24.7372 37.517 25.4178 37.517 26.43C37.517 27.1455 37.7614 27.6865 38.25 28.053C38.7561 28.4195 39.3407 28.6027 40.0039 28.6027ZM43.8519 29.9639C43.7821 29.7196 43.721 29.4316 43.6687 29.1001C43.6163 28.7685 43.5727 28.4107 43.5378 28.0268C43.3807 28.2886 43.1887 28.5504 42.9619 28.8121C42.7525 29.0739 42.4907 29.3095 42.1766 29.5189C41.8624 29.7283 41.4872 29.8941 41.0509 30.0163C40.6147 30.1559 40.1086 30.2257 39.5327 30.2257C38.9568 30.2257 38.4158 30.1472 37.9097 29.9901C37.4036 29.833 36.9499 29.5974 36.5485 29.2833C36.1646 28.9692 35.8592 28.5853 35.6323 28.1315C35.4054 27.6778 35.292 27.1542 35.292 26.5609C35.292 25.1299 35.8592 24.0915 36.9935 23.4458C38.1453 22.7827 39.8381 22.4511 42.0719 22.4511H43.4331V21.3778C43.4331 20.3133 43.2062 19.5193 42.7525 18.9957C42.2987 18.4722 41.496 18.2104 40.3442 18.2104C39.5589 18.2104 38.8433 18.3587 38.1976 18.6554C37.5694 18.9346 37.011 19.2749 36.5223 19.6763L35.9202 17.8439C36.1297 17.6869 36.4002 17.5298 36.7317 17.3727C37.0633 17.2157 37.4385 17.0761 37.8573 16.9539C38.2762 16.8317 38.7212 16.7358 39.1924 16.666C39.6636 16.5787 40.1435 16.5351 40.6321 16.5351C42.29 16.5351 43.5378 16.9016 44.3754 17.6345C45.2306 18.35 45.6581 19.4931 45.6581 21.0637V27.8436C45.6581 28.1402 45.6756 28.5155 45.7105 28.9692C45.7454 29.4055 45.789 29.737 45.8414 29.9639H43.8519Z" fill="#494C4C"/>
<path d="M54.7142 18.891C54.2604 18.8561 53.8154 18.891 53.3791 18.9957C52.9428 19.1004 52.5327 19.2662 52.1488 19.4931C51.7823 19.72 51.442 19.9992 51.1279 20.3308C50.8312 20.6623 50.5956 21.0288 50.4211 21.4302V29.9639H48.1961V16.7968H50.1593L50.3688 19.6501H50.4211C50.5956 19.2662 50.8138 18.8997 51.0755 18.5507C51.3548 18.1842 51.6689 17.8701 52.0179 17.6083C52.3844 17.3291 52.7858 17.1022 53.2221 16.9277C53.6758 16.7532 54.1732 16.666 54.7142 16.666V18.891Z" fill="#494C4C"/>
<path d="M55.5379 29.9639V28.1577L63.0769 18.3151H55.7473V16.7968H65.1187V18.7601L57.7368 28.4456H65.1449V29.9639H55.5379Z" fill="#494C4C"/>
<path d="M72.0767 30.2257C71.2216 30.2257 70.4101 30.0774 69.6422 29.7807C68.8744 29.4666 68.2025 29.0215 67.6266 28.4456C67.0507 27.8523 66.5883 27.1368 66.2392 26.2991C65.9076 25.444 65.7419 24.4667 65.7419 23.3673C65.7419 22.2679 65.9076 21.2993 66.2392 20.4616C66.5883 19.6065 67.0507 18.891 67.6266 18.3151C68.2025 17.7392 68.8744 17.3029 69.6422 17.0063C70.4101 16.6921 71.2216 16.5351 72.0767 16.5351C72.9318 16.5351 73.7433 16.6921 74.5112 17.0063C75.2965 17.3029 75.9771 17.7392 76.553 18.3151C77.1463 18.891 77.6175 19.6065 77.9666 20.4616C78.3156 21.2993 78.4901 22.2679 78.4901 23.3673C78.4901 24.4667 78.3156 25.444 77.9666 26.2991C77.6175 27.1368 77.1463 27.8523 76.553 28.4456C75.9771 29.0215 75.2965 29.4666 74.5112 29.7807C73.7433 30.0774 72.9318 30.2257 72.0767 30.2257ZM72.0767 28.5765C72.6003 28.5765 73.1063 28.4893 73.595 28.3148C74.1011 28.1228 74.5461 27.8174 74.93 27.3986C75.3139 26.9797 75.6193 26.4387 75.8462 25.7756C76.0905 25.1124 76.2127 24.3097 76.2127 23.3673C76.2127 22.4249 76.0905 21.6309 75.8462 20.9852C75.6193 20.322 75.3139 19.781 74.93 19.3622C74.5461 18.9434 74.1011 18.6467 73.595 18.4722C73.1063 18.2802 72.6003 18.1842 72.0767 18.1842C71.5532 18.1842 71.0471 18.2802 70.5584 18.4722C70.0873 18.6467 69.6597 18.9434 69.2758 19.3622C68.8918 19.781 68.5864 20.322 68.3596 20.9852C68.1327 21.6309 68.0193 22.4249 68.0193 23.3673C68.0193 24.3097 68.1327 25.1124 68.3596 25.7756C68.5864 26.4387 68.8918 26.9797 69.2758 27.3986C69.6597 27.8174 70.0873 28.1228 70.5584 28.3148C71.0471 28.4893 71.5532 28.5765 72.0767 28.5765Z" fill="#494C4C"/>
<path d="M86.6138 18.3151C85.6016 18.3151 84.7814 18.5594 84.1531 19.0481C83.5249 19.5367 83.0101 20.1475 82.6087 20.8805V29.9639H80.3836V16.7968H82.4778L82.5563 19.1528H82.6087C82.9577 18.4024 83.5162 17.7828 84.284 17.2942C85.0519 16.7881 86.0204 16.5351 87.1897 16.5351C88.4985 16.5351 89.5369 16.8841 90.3047 17.5822C91.0726 18.2628 91.4565 19.3098 91.4565 20.7234V29.9639H89.2053V20.8281C89.2053 19.8857 88.9784 19.2313 88.5247 18.8648C88.071 18.4984 87.434 18.3151 86.6138 18.3151Z" fill="#494C4C"/>
<path d="M100.319 30.2257C99.0977 30.2257 98.0419 29.9116 97.1519 29.2833C96.2793 28.6376 95.6336 27.7389 95.2148 26.5871L95.0839 29.9639H94.2724V10.9855H95.241V20.0952C95.6773 18.9608 96.3317 18.0882 97.2043 17.4774C98.0768 16.8492 99.1239 16.5351 100.345 16.5351C101.166 16.5351 101.934 16.6834 102.649 16.9801C103.365 17.2768 103.984 17.7218 104.508 18.3151C105.049 18.891 105.467 19.6065 105.764 20.4616C106.078 21.2993 106.235 22.2679 106.235 23.3673C106.235 24.4667 106.078 25.444 105.764 26.2991C105.467 27.1542 105.049 27.8698 104.508 28.4456C103.984 29.0215 103.356 29.4666 102.623 29.7807C101.907 30.0774 101.14 30.2257 100.319 30.2257ZM100.241 29.4927C100.956 29.4927 101.619 29.3618 102.23 29.1001C102.841 28.8383 103.365 28.4544 103.801 27.9483C104.255 27.4247 104.604 26.779 104.848 26.0112C105.11 25.2433 105.241 24.362 105.241 23.3673C105.241 22.3726 105.11 21.4913 104.848 20.7234C104.604 19.9555 104.255 19.3186 103.801 18.8125C103.365 18.3064 102.841 17.9225 102.23 17.6607C101.619 17.3989 100.956 17.268 100.241 17.268C99.5253 17.268 98.8621 17.3989 98.2513 17.6607C97.6405 17.9225 97.1083 18.3064 96.6545 18.8125C96.2182 19.3186 95.8692 19.9555 95.6075 20.7234C95.3631 21.4913 95.241 22.3726 95.241 23.3673C95.241 24.362 95.3631 25.2433 95.6075 26.0112C95.8692 26.779 96.2182 27.4247 96.6545 27.9483C97.1083 28.4544 97.6405 28.8383 98.2513 29.1001C98.8621 29.3618 99.5253 29.4927 100.241 29.4927Z" fill="#707373"/>
<path d="M109.01 13.865C108.765 13.865 108.565 13.7865 108.408 13.6294C108.268 13.4549 108.198 13.2629 108.198 13.0535C108.198 12.8441 108.268 12.6609 108.408 12.5038C108.565 12.3293 108.765 12.242 109.01 12.242C109.254 12.242 109.446 12.3293 109.586 12.5038C109.725 12.6609 109.795 12.8441 109.795 13.0535C109.795 13.2629 109.725 13.4549 109.586 13.6294C109.446 13.7865 109.254 13.865 109.01 13.865ZM109.481 16.7968V29.9639H108.512V16.7968H109.481Z" fill="#707373"/>
<path d="M111.475 29.9639V29.4142L119.407 17.5298H111.684V16.7968H120.637V17.3466L112.705 29.231H120.663V29.9639H111.475Z" fill="#707373"/>
<path d="M127.706 29.4927C128.421 29.4927 129.084 29.3618 129.695 29.1001C130.323 28.8209 130.856 28.4282 131.292 27.9221C131.746 27.3986 132.095 26.7616 132.339 26.0112C132.601 25.2433 132.732 24.362 132.732 23.3673C132.732 22.3726 132.601 21.5 132.339 20.7496C132.095 19.9817 131.746 19.3447 131.292 18.8387C130.856 18.3151 130.323 17.9225 129.695 17.6607C129.084 17.3989 128.421 17.268 127.706 17.268C126.99 17.268 126.318 17.3989 125.69 17.6607C125.079 17.9225 124.547 18.3151 124.093 18.8387C123.657 19.3447 123.308 19.9817 123.046 20.7496C122.802 21.5 122.68 22.3726 122.68 23.3673C122.68 24.362 122.802 25.2433 123.046 26.0112C123.308 26.7616 123.657 27.3986 124.093 27.9221C124.547 28.4282 125.079 28.8209 125.69 29.1001C126.318 29.3618 126.99 29.4927 127.706 29.4927ZM132.732 26.5347C132.313 27.6865 131.667 28.594 130.795 29.2571C129.922 29.9028 128.857 30.2257 127.601 30.2257C126.781 30.2257 126.013 30.0774 125.297 29.7807C124.582 29.4666 123.954 29.0215 123.413 28.4456C122.889 27.8698 122.47 27.1542 122.156 26.2991C121.859 25.444 121.711 24.4667 121.711 23.3673C121.711 22.2679 121.859 21.2993 122.156 20.4616C122.47 19.6065 122.889 18.891 123.413 18.3151C123.954 17.7218 124.582 17.2768 125.297 16.9801C126.013 16.6834 126.781 16.5351 127.601 16.5351C128.823 16.5351 129.87 16.8405 130.742 17.4513C131.632 18.0446 132.287 18.9085 132.705 20.0428V10.9855H133.674V29.9639H132.836L132.732 26.5347Z" fill="#707373"/>
<path d="M140.555 29.4666C141.201 29.4666 141.759 29.3618 142.23 29.1524C142.719 28.943 143.129 28.6812 143.461 28.3671C143.792 28.053 144.063 27.7214 144.272 27.3724C144.499 27.0059 144.674 26.6743 144.796 26.3777V23.0008H142.283C140.485 23.0008 139.159 23.2713 138.304 23.8123C137.466 24.3533 137.047 25.191 137.047 26.3253C137.047 27.3375 137.344 28.1141 137.937 28.6551C138.548 29.1961 139.421 29.4666 140.555 29.4666ZM145.11 29.9639C145.023 29.6847 144.953 29.3444 144.901 28.943C144.848 28.5416 144.822 28.0617 144.822 27.5033C144.665 27.8174 144.464 28.1402 144.22 28.4718C143.993 28.7859 143.705 29.0739 143.356 29.3357C143.007 29.5974 142.588 29.8069 142.1 29.9639C141.628 30.1384 141.07 30.2257 140.424 30.2257C139.08 30.2257 138.016 29.8941 137.231 29.231C136.463 28.5504 136.079 27.5905 136.079 26.3515C136.079 25.0252 136.594 24.0217 137.623 23.3411C138.67 22.6605 140.197 22.3202 142.204 22.3202H144.796V20.7234C144.796 19.5367 144.499 18.6729 143.906 18.1319C143.312 17.5909 142.396 17.3204 141.157 17.3204C140.232 17.3204 139.438 17.4513 138.775 17.713C138.112 17.9574 137.536 18.2715 137.047 18.6554L136.655 17.8439C137.056 17.5647 137.641 17.2768 138.409 16.9801C139.194 16.6834 140.136 16.5351 141.236 16.5351C142.684 16.5351 143.801 16.8667 144.586 17.5298C145.372 18.193 145.764 19.2226 145.764 20.6187V27.4771C145.764 27.9657 145.782 28.4369 145.817 28.8907C145.852 29.3269 145.913 29.6847 146 29.9639H145.11Z" fill="#707373"/>
<path d="M13.8064 8.92768C19.4643 5.3643 26.7588 9.80545 26.1909 16.4679C26.0412 18.2236 26.4683 19.9803 27.4074 21.4713C30.9708 27.1293 26.5296 34.4237 19.8672 33.8559C18.1115 33.7062 16.3548 34.1333 14.8638 35.0723C9.20578 38.6357 1.91133 34.1946 2.47922 27.5321C2.62888 25.7764 2.20179 24.0198 1.26274 22.5287C-2.30065 16.8707 2.1405 9.57628 8.80294 10.1442C10.5587 10.2938 12.3153 9.86673 13.8064 8.92768Z" fill="#E50914"/>
<path d="M9.91468 27.721C10.3121 27.721 10.6267 27.6289 10.8585 27.4447C11.1014 27.2497 11.2891 27.0113 11.4215 26.7296V25.2343H10.7592C10.0085 25.2343 9.48415 25.3481 9.18609 25.5756C8.89907 25.8032 8.75556 26.1337 8.75556 26.5671C8.75556 26.9571 8.86043 27.2497 9.07018 27.4447C9.27992 27.6289 9.56142 27.721 9.91468 27.721ZM11.7527 29.005C11.6975 28.8642 11.6478 28.7016 11.6037 28.5174C11.5706 28.3224 11.543 28.1165 11.5209 27.8998C11.4215 28.0515 11.3001 28.2032 11.1566 28.3549C11.0131 28.5066 10.8475 28.642 10.6598 28.7612C10.4722 28.8804 10.2514 28.9779 9.99747 29.0538C9.74357 29.1296 9.45655 29.1675 9.13641 29.1675C8.739 29.1675 8.36919 29.1188 8.02697 29.0213C7.68476 28.9237 7.39222 28.7775 7.14936 28.5824C6.9065 28.3766 6.71331 28.1219 6.5698 27.8185C6.43733 27.5152 6.37109 27.163 6.37109 26.7621C6.37109 25.9603 6.72435 25.3156 7.43086 24.828C8.13737 24.3296 9.23025 24.0804 10.7095 24.0804H11.4215V23.6253C11.4215 23.1377 11.3001 22.7747 11.0572 22.5364C10.8144 22.2871 10.3618 22.1625 9.69941 22.1625C9.21369 22.1625 8.7942 22.2438 8.44094 22.4063C8.08769 22.558 7.73995 22.7531 7.39774 22.9914L6.70227 21.3499C7.05552 21.144 7.49709 20.9707 8.02697 20.8298C8.5679 20.6781 9.24129 20.6023 10.0471 20.6023C11.2615 20.6023 12.1943 20.8352 12.8456 21.3011C13.5079 21.7562 13.8391 22.5038 13.8391 23.544V27.6885C13.8391 27.8727 13.8446 28.1057 13.8557 28.3874C13.8778 28.6583 13.9053 28.8642 13.9385 29.005H11.7527Z" fill="white"/>
<path d="M20.1991 29.1675C19.5257 29.1675 18.9572 29.0158 18.4936 28.7125C18.041 28.4091 17.6767 28.0082 17.4007 27.5097L17.2351 29.005H15.1156V17.2216H17.5332V22.0325C17.8202 21.5883 18.1845 21.2415 18.626 20.9923C19.0676 20.7323 19.603 20.6023 20.2322 20.6023C20.729 20.6023 21.1982 20.6889 21.6397 20.8623C22.0813 21.0357 22.4677 21.3011 22.7989 21.6587C23.13 22.0054 23.395 22.4497 23.5937 22.9914C23.7924 23.5224 23.8917 24.1508 23.8917 24.8768C23.8917 25.6027 23.7924 26.2366 23.5937 26.7784C23.395 27.3093 23.1245 27.7535 22.7823 28.1111C22.4511 28.4687 22.0592 28.7341 21.6066 28.9075C21.165 29.0809 20.6959 29.1675 20.1991 29.1675ZM19.5036 27.6235C20.0666 27.6235 20.5248 27.4068 20.878 26.9734C21.2423 26.5291 21.4245 25.8303 21.4245 24.8768C21.4245 23.9233 21.2423 23.2298 20.878 22.7964C20.5248 22.3522 20.0666 22.13 19.5036 22.13C19.2277 22.13 18.9682 22.1842 18.7254 22.2926C18.4825 22.4009 18.2728 22.5689 18.0962 22.7964C17.9195 23.0131 17.776 23.2948 17.6656 23.6415C17.5663 23.9883 17.5166 24.4 17.5166 24.8768C17.5166 25.3535 17.5663 25.7653 17.6656 26.112C17.776 26.4587 17.9195 26.7459 18.0962 26.9734C18.2728 27.1901 18.4825 27.3526 18.7254 27.461C18.9682 27.5693 19.2277 27.6235 19.5036 27.6235Z" fill="white"/>
<rect x="157" y="14" width="30" height="18" rx="7" fill="#6FCF97"/>
<path d="M163.888 27.12C163.408 27.12 162.992 27.016 162.64 26.808C162.288 26.592 162.008 26.292 161.8 25.908L161.692 27H160.852V18.3H161.872V21.936C162.08 21.6 162.356 21.336 162.7 21.144C163.044 20.944 163.456 20.844 163.936 20.844C164.288 20.844 164.624 20.908 164.944 21.036C165.264 21.164 165.548 21.356 165.796 21.612C166.044 21.868 166.24 22.196 166.384 22.596C166.528 22.988 166.6 23.448 166.6 23.976C166.6 24.504 166.524 24.968 166.372 25.368C166.228 25.76 166.028 26.088 165.772 26.352C165.524 26.608 165.236 26.8 164.908 26.928C164.588 27.056 164.248 27.12 163.888 27.12ZM163.732 26.388C163.996 26.388 164.24 26.344 164.464 26.256C164.688 26.16 164.88 26.016 165.04 25.824C165.2 25.624 165.324 25.372 165.412 25.068C165.5 24.764 165.544 24.4 165.544 23.976C165.544 23.144 165.376 22.536 165.04 22.152C164.704 21.76 164.268 21.564 163.732 21.564C163.468 21.564 163.216 21.612 162.976 21.708C162.736 21.796 162.524 21.94 162.34 22.14C162.164 22.332 162.024 22.58 161.92 22.884C161.816 23.188 161.764 23.552 161.764 23.976C161.764 24.408 161.816 24.776 161.92 25.08C162.024 25.384 162.164 25.632 162.34 25.824C162.524 26.016 162.736 26.16 162.976 26.256C163.216 26.344 163.468 26.388 163.732 26.388ZM170.389 21.576C169.957 21.576 169.585 21.728 169.273 22.032C168.969 22.336 168.777 22.796 168.697 23.412H171.757C171.805 22.788 171.697 22.328 171.433 22.032C171.177 21.728 170.829 21.576 170.389 21.576ZM172.609 26.484C172.393 26.668 172.113 26.82 171.769 26.94C171.425 27.06 171.033 27.12 170.593 27.12C169.633 27.12 168.897 26.848 168.385 26.304C167.873 25.752 167.617 24.976 167.617 23.976C167.617 23.488 167.689 23.052 167.833 22.668C167.977 22.276 168.173 21.944 168.421 21.672C168.677 21.4 168.973 21.196 169.309 21.06C169.653 20.916 170.021 20.844 170.413 20.844C170.821 20.844 171.185 20.916 171.505 21.06C171.833 21.196 172.101 21.404 172.309 21.684C172.525 21.956 172.669 22.3 172.741 22.716C172.821 23.124 172.821 23.596 172.741 24.132H168.661C168.709 25.58 169.385 26.304 170.689 26.304C171.033 26.304 171.341 26.252 171.613 26.148C171.885 26.044 172.137 25.912 172.369 25.752L172.609 26.484ZM177.117 26.892C176.989 26.956 176.833 27.008 176.649 27.048C176.465 27.096 176.261 27.12 176.037 27.12C175.469 27.12 175.049 26.972 174.777 26.676C174.505 26.372 174.369 25.932 174.369 25.356V21.708H173.649V20.964H174.369V19.812H175.401V20.964H176.913V21.708H175.401V25.308C175.401 25.636 175.453 25.884 175.557 26.052C175.661 26.212 175.853 26.292 176.133 26.292C176.269 26.292 176.409 26.276 176.553 26.244C176.697 26.212 176.825 26.168 176.937 26.112L177.117 26.892ZM180.113 26.376C180.537 26.376 180.873 26.272 181.121 26.064C181.377 25.848 181.565 25.604 181.685 25.332V24.192H181.157C180.381 24.192 179.821 24.276 179.477 24.444C179.141 24.604 178.973 24.916 178.973 25.38C178.973 25.708 179.085 25.956 179.309 26.124C179.541 26.292 179.809 26.376 180.113 26.376ZM181.877 27C181.845 26.888 181.817 26.756 181.793 26.604C181.769 26.452 181.749 26.288 181.733 26.112C181.661 26.232 181.573 26.352 181.469 26.472C181.373 26.592 181.253 26.7 181.109 26.796C180.965 26.892 180.793 26.968 180.593 27.024C180.393 27.088 180.161 27.12 179.897 27.12C179.633 27.12 179.385 27.084 179.153 27.012C178.921 26.94 178.713 26.832 178.529 26.688C178.353 26.544 178.213 26.368 178.109 26.16C178.005 25.952 177.953 25.712 177.953 25.44C177.953 24.784 178.213 24.308 178.733 24.012C179.261 23.708 180.037 23.556 181.061 23.556H181.685V23.064C181.685 22.576 181.581 22.212 181.373 21.972C181.165 21.732 180.797 21.612 180.269 21.612C179.909 21.612 179.581 21.68 179.285 21.816C178.997 21.944 178.741 22.1 178.517 22.284L178.241 21.444C178.337 21.372 178.461 21.3 178.613 21.228C178.765 21.156 178.937 21.092 179.129 21.036C179.321 20.98 179.525 20.936 179.741 20.904C179.957 20.864 180.177 20.844 180.401 20.844C181.161 20.844 181.733 21.012 182.117 21.348C182.509 21.676 182.705 22.2 182.705 22.92V26.028C182.705 26.164 182.713 26.336 182.729 26.544C182.745 26.744 182.765 26.896 182.789 27H181.877Z" fill="white"/>
</svg>
