<svg width="36" height="36" viewBox="0 0 36 36" fill="none" xmlns="http://www.w3.org/2000/svg">
<path fill-rule="evenodd" clip-rule="evenodd" d="M32.8869 11.0535C33.6 2.68775 24.4406 -2.88884 17.3361 1.58557C15.4639 2.7647 13.2581 3.30099 11.0535 3.11307C2.68775 2.39998 -2.88884 11.5594 1.58557 18.6639C2.7647 20.5361 3.30099 22.7419 3.11307 24.9465C2.39998 33.3122 11.5594 38.8888 18.6639 34.4144C20.5361 33.2353 22.7419 32.699 24.9465 32.8869C33.3122 33.6 38.8888 24.4406 34.4144 17.3361C33.2353 15.4639 32.699 13.2581 32.8869 11.0535ZM23.2217 26.4286C23.8039 26.8095 24.5178 27 25.3633 27C25.9871 27 26.5762 26.8912 27.1307 26.6735C27.699 26.4558 28.1911 26.1224 28.6069 25.6735C29.0366 25.2245 29.3762 24.6667 29.6257 24C29.8752 23.3197 30 22.5238 30 21.6122C30 20.7007 29.8752 19.9116 29.6257 19.2449C29.3762 18.5646 29.0436 18.0068 28.6277 17.5714C28.2119 17.1224 27.7267 16.7891 27.1723 16.5714C26.6178 16.3537 26.0287 16.2449 25.4049 16.2449C24.6148 16.2449 23.9425 16.4082 23.3881 16.7347C22.8336 17.0476 22.3762 17.483 22.0158 18.0408V12H18.9801V26.7959H21.6415L21.8494 24.9184C22.196 25.5442 22.6534 26.0476 23.2217 26.4286ZM26.2158 24.2449C25.7722 24.7891 25.197 25.0612 24.4901 25.0612C24.1435 25.0612 23.8178 24.9932 23.5128 24.8571C23.2079 24.7211 22.9445 24.517 22.7227 24.2449C22.5009 23.9592 22.3207 23.5986 22.1821 23.1633C22.0574 22.7279 21.995 22.2109 21.995 21.6122C21.995 21.0136 22.0574 20.4966 22.1821 20.0612C22.3207 19.6259 22.5009 19.2721 22.7227 19C22.9445 18.7143 23.2079 18.5034 23.5128 18.3673C23.8178 18.2313 24.1435 18.1633 24.4901 18.1633C25.197 18.1633 25.7722 18.4422 26.2158 19C26.6732 19.5442 26.902 20.415 26.902 21.6122C26.902 22.8095 26.6732 23.6871 26.2158 24.2449ZM13.6347 24.8367C13.3436 25.068 12.9486 25.1837 12.4495 25.1837C12.006 25.1837 11.6525 25.068 11.3891 24.8367C11.1258 24.5918 10.9941 24.2245 10.9941 23.7347C10.9941 23.1905 11.1743 22.7755 11.5347 22.4898C11.9089 22.2041 12.5674 22.0612 13.5099 22.0612H14.3416V23.9388C14.1753 24.2925 13.9397 24.5918 13.6347 24.8367ZM14.5704 26.1837C14.6258 26.415 14.6882 26.619 14.7575 26.7959H17.5021C17.4605 26.619 17.4258 26.3605 17.3981 26.0204C17.3842 25.6667 17.3773 25.3741 17.3773 25.1429V19.9388C17.3773 18.6327 16.9615 17.6939 16.1298 17.1224C15.3119 16.5374 14.1406 16.2449 12.6159 16.2449C11.604 16.2449 10.7584 16.3401 10.0792 16.5306C9.41387 16.7075 8.85941 16.9252 8.41584 17.1837L9.28912 19.2449C9.71883 18.9456 10.1555 18.7007 10.599 18.5102C11.0426 18.3061 11.5693 18.2041 12.1792 18.2041C13.0109 18.2041 13.5793 18.3605 13.8842 18.6735C14.1892 18.9728 14.3416 19.4286 14.3416 20.0408V20.6122H13.4476C11.5901 20.6122 10.2178 20.9252 9.3307 21.551C8.44357 22.1633 8 22.9728 8 23.9796C8 24.483 8.08317 24.9252 8.24951 25.3061C8.42971 25.6871 8.67228 26.0068 8.97724 26.2653C9.28219 26.5102 9.64952 26.6939 10.0792 26.8163C10.5089 26.9388 10.9733 27 11.4723 27C11.8743 27 12.2347 26.9524 12.5535 26.8571C12.8723 26.7619 13.1495 26.6395 13.3852 26.4898C13.6208 26.3401 13.8288 26.1701 14.009 25.9796C14.1892 25.7891 14.3416 25.5986 14.4664 25.4082C14.4941 25.6803 14.5288 25.9388 14.5704 26.1837Z" fill="#E50914"/>
</svg>
