<svg width="32" height="28" viewBox="0 0 32 28" fill="none" xmlns="http://www.w3.org/2000/svg">
<path fill-rule="evenodd" clip-rule="evenodd" d="M5.8632 0.0521048C5.40786 0.190954 5.43003 0.150472 4.51253 2.51695L3.99139 3.86109L4.00843 7.1829L4.02553 10.5048L4.15809 10.6373C4.33724 10.8164 4.6431 10.8139 4.79023 10.6323C4.8953 10.5025 4.90164 10.3172 4.90164 7.38961V4.28459H9.58288H14.2642L14.2807 7.79401L14.2972 11.3035L14.4946 11.4797C14.7315 11.6914 15.0504 11.7146 15.3244 11.5402C15.4241 11.4767 15.9951 10.9875 16.5933 10.4532C17.1914 9.91892 17.7028 9.48153 17.7297 9.48129C17.7566 9.48104 18.246 9.89572 18.8173 10.4027C20.2874 11.7074 20.2181 11.6561 20.5102 11.6557C20.8419 11.6553 21.0822 11.4646 21.1567 11.1425C21.1875 11.0095 21.2133 9.41216 21.2141 7.59268L21.2155 4.28459H25.868H30.5205V14.3064V24.3281L30.3612 24.4875L30.2019 24.6467L26.0259 24.6376C23.7291 24.6326 22.0539 24.6105 22.3031 24.5884C22.8484 24.5402 23.1731 24.3862 23.4762 24.0321C23.6947 23.7769 23.8741 23.3184 23.8741 23.0153C23.8741 22.6365 23.6825 22.2028 23.3827 21.9027L23.0861 21.6059L23.2052 21.4791C23.4214 21.249 23.5841 20.7889 23.5841 20.4078C23.5841 19.968 23.3628 19.4755 23.0491 19.2169C22.9117 19.1036 21.6103 18.5425 19.3823 17.636C17.4828 16.8631 15.8933 16.2125 15.8501 16.19C15.807 16.1677 16.5139 15.9201 17.421 15.6398C19.298 15.06 19.5154 14.9497 19.7783 14.4437C20.153 13.7224 19.8829 12.8735 19.1612 12.5039C18.78 12.3087 18.5145 12.3027 17.708 12.4715C11.8985 13.687 9.75363 14.0764 8.05772 14.2236C7.48371 14.2734 7.3654 14.2373 7.44208 14.0356C7.59204 13.6411 7.46498 13.1577 7.15326 12.937C6.93889 12.7851 4.45839 11.7769 4.2993 11.7769C4.08299 11.7769 3.69405 11.9685 3.5801 12.1312C3.43364 12.3403 0.54892 19.4183 0.508377 19.668C0.467955 19.9172 0.577439 20.2431 0.758885 20.4136C0.957069 20.5998 3.47587 21.6256 3.73484 21.6256C3.99514 21.6256 4.23972 21.5002 4.43736 21.2653C4.52226 21.1644 4.62346 21.0818 4.66225 21.0818C4.78159 21.0818 5.72151 21.5417 6.0299 21.7509C6.19032 21.8597 6.70221 22.3346 7.16746 22.8061C8.05542 23.706 8.38997 23.9556 9.28222 24.3835L9.82602 24.6443L7.57132 24.6455C6.06948 24.6463 5.2759 24.6249 5.19469 24.5815C4.98152 24.4673 4.90164 24.1576 4.90164 23.4446C4.90164 22.8012 4.89711 22.7788 4.74243 22.6572C4.53507 22.4941 4.40262 22.4992 4.19507 22.6782L4.02553 22.8244L4.03048 23.6298C4.0358 24.5059 4.0845 24.6991 4.39156 25.0632C4.48661 25.176 4.70147 25.332 4.86896 25.41L5.17354 25.5518L8.64882 25.5525L12.1241 25.5531L15.0201 26.7351C16.6128 27.3852 18.0486 27.9423 18.2106 27.973C18.7585 28.0769 19.2731 27.879 19.6746 27.4099C19.8793 27.1708 19.9518 26.9892 20.0328 26.513C20.0687 26.3015 20.0797 26.2935 20.3822 26.2577C20.7789 26.2107 21.3027 25.9562 21.4709 25.7288L21.6008 25.5531L25.9549 25.5517C30.84 25.5502 30.5607 25.575 31.02 25.1021C31.4568 24.6523 31.4268 25.4674 31.4268 14.0367V3.75034L30.7964 2.13998C30.4497 1.25432 30.1231 0.464061 30.0705 0.38382C29.8546 0.05428 29.7395 0.0264256 28.5043 0.00491543C27.8741 -0.00608133 27.2677 0.00201516 27.1568 0.0228003C26.7421 0.100623 26.5891 0.479528 26.8622 0.752635C27.0095 0.899943 27.0188 0.90097 28.1814 0.90097H29.3523L29.8168 2.0943C30.0723 2.75066 30.2807 3.30805 30.2801 3.33295C30.2793 3.35784 28.2142 3.37826 25.6908 3.37826C21.3739 3.37826 21.1009 3.37204 21.0705 3.27253C21.0023 3.04933 20.5509 1.06006 20.5509 0.98254C20.5509 0.915894 20.8752 0.90097 22.3228 0.90097H24.0947L24.2261 0.761154C24.3882 0.588529 24.3944 0.355845 24.2419 0.16751L24.1265 0.0248546L15.0729 0.0146433C10.0935 0.00902407 5.94912 0.0258818 5.8632 0.0521048ZM14.9188 1.00671C14.9041 1.06483 14.7737 1.62229 14.6291 2.24535L14.3662 3.37826H9.74826C6.07775 3.37826 5.13674 3.3628 5.16134 3.30274C5.19215 3.22739 5.95365 1.29486 6.05413 1.03692L6.10706 0.90097H10.5264C14.7053 0.90097 14.9443 0.90671 14.9188 1.00671ZM19.8857 2.15472L20.1687 3.37826H17.7244H15.2801L15.3142 3.24793C15.3329 3.17621 15.4639 2.61846 15.6052 2.00844L15.8621 0.899279L17.7323 0.91523L19.6026 0.931181L19.8857 2.15472ZM20.3092 7.40169V10.5188L20.1128 10.354C20.0048 10.2633 19.515 9.83264 19.0244 9.39694C18.0446 8.5268 17.8264 8.40384 17.5023 8.53931C17.3296 8.61145 16.1451 9.61379 15.3999 10.3183L15.1733 10.5326V7.40858V4.28459H17.7413H20.3092V7.40169ZM5.46973 13.1666C6.08676 13.4158 6.592 13.6459 6.59249 13.6779C6.59358 13.7421 3.83913 20.5205 3.75997 20.6486C3.68547 20.7692 1.38002 19.8262 1.42769 19.6946C1.67246 19.0184 4.27809 12.6898 4.30758 12.6998C4.32975 12.7073 4.85276 12.9174 5.46973 13.1666ZM18.8544 13.3834C19.002 13.5076 19.0403 13.5872 19.0403 13.7695C19.0403 14.1879 18.9925 14.2123 16.8938 14.8649C15.8312 15.1954 14.7785 15.5205 14.5543 15.5875C14.2195 15.6875 14.1296 15.7423 14.0511 15.8943C13.9368 16.1153 14.0126 16.3706 14.2257 16.4824C14.2983 16.5204 16.1522 17.2825 18.3455 18.1759C20.9715 19.2455 22.3872 19.8524 22.491 19.9531C22.9248 20.3737 22.6123 21.1159 22.0058 21.1056C21.8706 21.1034 20.7845 20.6908 19.1068 20.0043C17.6313 19.4006 16.3632 18.9067 16.2888 18.9067C15.9337 18.9067 15.7403 19.3821 15.9941 19.6313C16.0577 19.6938 17.5754 20.3427 19.3664 21.0733C21.5892 21.9798 22.673 22.4514 22.7803 22.5587C22.9082 22.6866 22.9375 22.7729 22.9375 23.0217C22.9375 23.2906 22.9138 23.3486 22.7402 23.5037C22.3908 23.8159 22.3687 23.8094 18.7932 22.3507C17.0012 21.6196 15.4795 21.0214 15.4118 21.0214C15.2427 21.0214 14.9921 21.2863 14.9921 21.4652C14.9921 21.5461 15.0396 21.6679 15.0978 21.736C15.1601 21.8088 16.2855 22.2992 17.8319 22.9275C19.2775 23.5148 20.5346 24.0336 20.6254 24.0804C20.8156 24.1783 20.9738 24.4492 20.9738 24.6769C20.9738 25.1129 20.5438 25.4343 20.1024 25.3281C19.9669 25.2955 18.682 24.789 17.247 24.2025C15.8119 23.6161 14.5989 23.1362 14.5512 23.1362C14.5036 23.1362 14.3929 23.1926 14.3054 23.2614C14.1057 23.4185 14.0876 23.7292 14.2687 23.893C14.336 23.9539 15.3761 24.4039 16.5798 24.8929C18.8344 25.8088 19.0539 25.9274 19.1293 26.2707C19.2174 26.6715 18.8569 27.0975 18.4408 27.0844C18.2055 27.077 10.0498 23.7825 9.2218 23.3603C8.80344 23.1471 8.61656 22.9907 7.8321 22.1971C6.8494 21.203 6.3644 20.8417 5.48894 20.4516C5.19916 20.3225 4.96207 20.193 4.96207 20.1638C4.96207 20.1346 5.41378 19.0038 5.96585 17.6507C6.51793 16.2977 6.98052 15.1635 6.99381 15.1303C7.00837 15.0939 7.39622 15.0679 7.96883 15.0648C8.78278 15.0604 9.14156 15.0234 10.4604 14.8075C11.9357 14.5661 16.4143 13.6826 17.6808 13.3832C18.4866 13.1928 18.6278 13.1928 18.8544 13.3834Z" fill="#E50914"/>
</svg>
