<svg width="26" height="26" viewBox="0 0 26 26" fill="none" xmlns="http://www.w3.org/2000/svg">
<path d="M11.608 1.46627C12.1119 0.211569 13.8881 0.211571 14.392 1.46627L16.7871 7.43064C17.0016 7.96494 17.5031 8.32928 18.0776 8.36823L24.4901 8.80303C25.8391 8.8945 26.388 10.5838 25.3504 11.4507L20.4181 15.5717C19.9763 15.9409 19.7847 16.5304 19.9252 17.0887L21.4933 23.3218C21.8231 24.6331 20.3861 25.6771 19.241 24.9582L13.7976 21.5407C13.3099 21.2346 12.6901 21.2346 12.2024 21.5407L6.75898 24.9582C5.61386 25.6771 4.17687 24.6331 4.50674 23.3218L6.07481 17.0887C6.21528 16.5304 6.02374 15.9409 5.58189 15.5717L0.649578 11.4507C-0.388017 10.5838 0.160864 8.8945 1.50986 8.80303L7.92244 8.36823C8.49689 8.32928 8.99836 7.96494 9.21292 7.43064L11.608 1.46627Z" fill="#E3E6E6"/>
</svg>
