<svg width="20" height="19" viewBox="0 0 20 19" fill="none" xmlns="http://www.w3.org/2000/svg">
<path d="M19.4909 1.20919C19.2859 1.03658 19.0377 0.922385 18.7727 0.878751C18.5077 0.835118 18.2357 0.863674 17.9857 0.961384L0.93955 7.61548C0.640563 7.7287 0.38731 7.93647 0.218787 8.20679C0.0502646 8.47711 -0.0241838 8.795 0.00690595 9.11151C0.034643 9.42789 0.164823 9.7268 0.377925 9.96343C0.591026 10.2001 0.875564 10.3617 1.18887 10.424L5.51966 11.2775V16.6559C5.51951 16.9468 5.60632 17.2313 5.76908 17.4731C5.93184 17.715 6.16321 17.9033 6.43384 18.0142C6.61294 18.0859 6.80405 18.1232 6.99712 18.1244C7.19117 18.125 7.3834 18.0872 7.56257 18.0132C7.74174 17.9391 7.90425 17.8303 8.04057 17.693L10.4414 15.3159L14.0704 18.4915C14.3383 18.7263 14.6828 18.8568 15.04 18.8586C15.1971 18.8618 15.3535 18.837 15.5017 18.7852C15.7454 18.7086 15.9647 18.57 16.138 18.3833C16.3113 18.1966 16.4326 17.9681 16.4898 17.7205L19.9618 2.65015C20.0225 2.3901 20.0107 2.11853 19.9277 1.86464C19.8447 1.61075 19.6937 1.38415 19.4909 1.20919V1.20919ZM6.08294 9.89164L1.48436 8.98301L14.3752 3.94426L6.08294 9.89164ZM6.99712 16.6559V12.3055L9.32411 14.343L6.99712 16.6559ZM15.0493 17.3901L7.44035 10.736L18.4012 2.87042L15.0493 17.3901Z" fill="white"/>
</svg>
