<svg width="18" height="20" viewBox="0 0 18 20" fill="none" xmlns="http://www.w3.org/2000/svg">
<path d="M7.51121 7.57654C4.70254 7.44319 2.74964 8.42881 1.65346 10.5344C0.00966839 13.6917 1.36868 18.8589 6.85341 18.8589C12.3386 18.8589 12.497 13.6415 12.497 13.0945V6.98301C13.6704 7.71413 14.6593 8.15458 15.4645 8.30391C16.2697 8.45276 16.7811 8.51897 17 8.50207V5.46114C16.2554 5.37286 15.6114 5.20428 15.0681 4.95588C14.2529 4.58304 12.6372 3.54858 12.6372 2.03234C12.6382 2.03985 12.6382 1.6487 12.6372 0.858887H9.24182C9.23181 8.28559 9.23181 12.3643 9.24182 13.0949C9.25709 14.1909 8.39321 15.7245 6.64209 15.7245C4.89049 15.7245 4.02709 14.1923 4.02709 13.2043C4.02709 12.5995 4.23793 11.7228 5.11039 11.0734C5.62796 10.6884 6.34586 10.5348 7.51121 10.5348V7.57654V7.57654Z" stroke="white" stroke-width="1.2" stroke-linejoin="round"/>
</svg>
